# xmcd
#
# Track frame offsets: 
#        150
#        4588
#        21663
#        37246
#        55175
#        70828
#        86638
#        109766
#        125936
#        142203
#        162092
#        177476
#        200114
#        216711
#        245091
#
# Disc length: 3670 seconds
#
# Revision: 1
# Processed by: cddbd v1.5.1PL2 Copyright (c) Steve Scherf et al.
# Submitted via: ExactAudioCopy v0.95a5
#
DISCID=f50e540f
DTITLE=Matt - PHOENIX 2006
DYEAR=2006
DGENRE=R&B
TTITLE0=Prélude au Phoenix
TTITLE1=Phoenix
TTITLE2=Midas Touch feat. Big Ali
TTITLE3=Petite fille feat. VR et Eloquence
TTITLE4=Le Test
TTITLE5=Scène de Ménage feat. Tania and Skalde Blase
TTITLE6=Merci...
TTITLE7=Messenger feat. Nathy
TTITLE8=Shorty
TTITLE9=Ghetto Love feat. Eloquence
TTITLE10=Brule le Score feat. Busta Flex
TTITLE11=Epouse-moi
TTITLE12=Les Nuits sont Longues feat. Mike Consentino
TTITLE13=Prisonnier du Sort
TTITLE14=DATA
EXTD=
EXTT0=
EXTT1=
EXTT2=
EXTT3=
EXTT4=
EXTT5=
EXTT6=
EXTT7=
EXTT8=
EXTT9=
EXTT10=
EXTT11=
EXTT12=
EXTT13=
EXTT14=
PLAYORDER=
